# xmcd
#
# Track frame offsets:
#        150
#        18934
#        38907
#        58074
#        76175
#        99323
#        118370
#        142363
#        162782
#        178472
#        195603
#        216350
#        234505
#        253032
#        265746
#        285327
#        302125
#        319621
#
# Disc length: 4440 seconds
#
# Revision: 0
# Processed by: cddbd v1.5.1PL0 Copyright (c) Steve Scherf et al.
# Submitted via: ExactAudioCopy v0.95a5
#
DISCID=06115612
DTITLE=Alanis Morissette - Supposed Former Infatuation Junkie
DYEAR=1900
DGENRE=Rock
TTITLE0=Front Row
TTITLE1=Baba
TTITLE2=Thank U
TTITLE3=Are You Still Mad
TTITLE4=Sympathetic Character
TTITLE5=That I Would Be Good
TTITLE6=The Couch
TTITLE7=Can't Not
TTITLE8=Ur
TTITLE9=I Was Hoping
TTITLE10=One
TTITLE11=Would Not Come
TTITLE12=Unsent
TTITLE13=So Pure
TTITLE14=Joining You
TTITLE15=Heart Of The House
TTITLE16=Your Congratulations
TTITLE17=Uninvited (Demo)
EXTD=
EXTT0=
EXTT1=
EXTT2=
EXTT3=
EXTT4=
EXTT5=
EXTT6=
EXTT7=
EXTT8=
EXTT9=
EXTT10=
EXTT11=
EXTT12=
EXTT13=
EXTT14=
EXTT15=
EXTT16=
EXTT17=
PLAYORDER=
